<svg width="42" height="44" viewBox="0 0 42 44" fill="none" xmlns="http://www.w3.org/2000/svg">
<g filter="url(#filter0_d)">
<path fill-rule="evenodd" clip-rule="evenodd" d="M21.024 36H6.65577C5.74105 36 5 35.2091 5 34.2337V5.76614C5 4.79057 5.74116 4 6.65577 4H33.3443C34.2587 4 35 4.79057 35 5.76614V34.2337C35 35.2092 34.2586 36 33.3443 36H25.6996V23.6078H29.5991L30.183 18.7784H25.6996V15.6951C25.6996 14.2969 26.0636 13.344 27.9433 13.344L30.3408 13.3429V9.02339C29.9262 8.96454 28.503 8.83305 26.8472 8.83305C23.3905 8.83305 21.024 11.0837 21.024 15.2168V18.7784H17.1145V23.6078H21.024V36Z" fill="white"/>
</g>
<defs>
<filter id="filter0_d" x="0" y="0" width="42" height="44" filterUnits="userSpaceOnUse" color-interpolation-filters="sRGB">
<feFlood flood-opacity="0" result="BackgroundImageFix"/>
<feColorMatrix in="SourceAlpha" type="matrix" values="0 0 0 0 0 0 0 0 0 0 0 0 0 0 0 0 0 0 127 0"/>
<feOffset dx="1" dy="2"/>
<feGaussianBlur stdDeviation="3"/>
<feColorMatrix type="matrix" values="0 0 0 0 0.00200974 0 0 0 0 0.00200974 0 0 0 0 0.00200974 0 0 0 0.5 0"/>
<feBlend mode="normal" in2="BackgroundImageFix" result="effect1_dropShadow"/>
<feBlend mode="normal" in="SourceGraphic" in2="effect1_dropShadow" result="shape"/>
</filter>
</defs>
</svg>
